<?xml version="1.0" encoding="UTF-8"?>
<svg id="Capa_2" data-name="Capa 2" xmlns="http://www.w3.org/2000/svg" viewBox="0 0 861.09 147.77">
  <defs>
    <style>
      .cls-1 {
        fill: #283252;
        stroke-width: 0px;
      }
    </style>
  </defs>
  <g id="Capa_1-2" data-name="Capa 1">
    <g>
      <g>
        <path class="cls-1" d="m61.11,13.15l45.18,116.48c1.85,4.69,3.95,7.81,6.3,9.35,2.34,1.54,4.5,2.38,6.48,2.5v3.7c-2.47-.25-5.49-.4-9.07-.46-3.58-.06-7.16-.09-10.74-.09-4.81,0-9.32.03-13.52.09-4.2.06-7.59.22-10.19.46v-3.7c6.3-.25,10.31-1.33,12.04-3.24,1.73-1.91,1.36-6.02-1.11-12.31L52.04,33.89l2.96-2.41L22.78,115.18c-1.98,4.94-3.15,9.11-3.52,12.5-.37,3.4-.03,6.08,1.02,8.06,1.05,1.98,2.84,3.4,5.37,4.26,2.53.87,5.71,1.36,9.54,1.48v3.7c-3.46-.25-7.07-.4-10.83-.46-3.77-.06-7.25-.09-10.46-.09s-5.71.03-7.87.09c-2.16.06-4.17.22-6.02.46v-3.7c2.47-.62,5-2.07,7.59-4.35,2.59-2.28,4.94-6.2,7.04-11.76L58.15,13.15h2.96Zm22.59,78.7v3.7H28.52l1.85-3.7h53.33Z"/>
        <path class="cls-1" d="m201.85,47.78v77.41c0,5.56,1.02,9.66,3.06,12.32,2.04,2.66,5.71,3.98,11.02,3.98v3.89c-3.83-.37-7.66-.56-11.48-.56-3.58,0-7.01.18-10.28.56-3.27.37-6.27,1.05-8.98,2.04v-21.85c-3.09,8.03-7.44,13.74-13.06,17.13-5.62,3.39-11.39,5.09-17.31,5.09-4.32,0-8.09-.62-11.3-1.85-3.21-1.23-5.86-2.96-7.96-5.19-2.35-2.47-3.95-5.68-4.81-9.63-.87-3.95-1.3-8.82-1.3-14.63v-46.48c0-5.56-.99-9.66-2.96-12.31-1.98-2.65-5.68-3.98-11.11-3.98v-3.89c3.95.37,7.78.56,11.48.56s7-.21,10.28-.65c3.27-.43,6.26-1.08,8.98-1.94v72.78c0,3.83.25,7.35.74,10.55.49,3.21,1.73,5.8,3.7,7.78,1.97,1.98,5.19,2.96,9.63,2.96,4.81,0,9.1-1.48,12.87-4.44,3.76-2.96,6.73-6.97,8.89-12.04,2.16-5.06,3.24-10.74,3.24-17.04v-38.33c0-5.56-.99-9.66-2.96-12.31-1.98-2.65-5.68-3.98-11.11-3.98v-3.89c3.95.37,7.78.56,11.48.56s7.01-.21,10.28-.65c3.27-.43,6.26-1.08,8.98-1.94Z"/>
        <path class="cls-1" d="m282.95,47.22c3.33,0,6.26.68,8.8,2.04,2.53,1.36,4.5,3.12,5.93,5.28,1.42,2.16,2.13,4.6,2.13,7.31,0,3.09-.96,5.8-2.87,8.15-1.92,2.35-4.48,3.52-7.69,3.52-2.59,0-4.88-.83-6.85-2.5-1.98-1.67-2.96-4.04-2.96-7.13,0-2.34.65-4.35,1.94-6.02s2.75-2.99,4.35-3.98c-.87-1.23-2.16-1.85-3.89-1.85-3.83,0-7.35,1.14-10.56,3.43-3.21,2.29-5.93,5.22-8.15,8.8-2.22,3.58-3.95,7.38-5.19,11.39-1.24,4.01-1.85,7.75-1.85,11.2v39.26c0,6.05,1.76,10.09,5.28,12.13,3.52,2.04,8.3,3.06,14.35,3.06v3.89c-2.84-.12-6.85-.28-12.04-.46s-10.68-.28-16.48-.28c-4.2,0-8.37.09-12.5.28-4.14.19-7.25.34-9.35.46v-3.89c5.06,0,8.67-.93,10.83-2.78,2.16-1.85,3.24-5.37,3.24-10.55v-57.96c0-5.56-.99-9.66-2.96-12.31-1.98-2.65-5.68-3.98-11.11-3.98v-3.89c3.95.37,7.78.56,11.48.56s7-.21,10.28-.65c3.27-.43,6.26-1.08,8.98-1.94v23.15c1.36-3.58,3.3-7.19,5.83-10.83,2.53-3.64,5.58-6.7,9.17-9.17,3.58-2.47,7.53-3.7,11.85-3.7Z"/>
        <path class="cls-1" d="m334.06,146.48c-5.06,0-9.44-.96-13.15-2.87-3.7-1.91-6.51-4.6-8.43-8.06-1.92-3.45-2.87-7.47-2.87-12.04,0-5.43,1.26-9.88,3.8-13.33,2.53-3.46,5.77-6.23,9.72-8.33,3.95-2.1,8.12-3.86,12.5-5.28,4.38-1.42,8.55-2.78,12.5-4.07,3.95-1.3,7.19-2.81,9.72-4.54,2.53-1.73,3.8-4.01,3.8-6.85v-11.48c0-5.19-.77-9.13-2.31-11.85-1.55-2.71-3.61-4.54-6.2-5.46-2.59-.93-5.49-1.39-8.7-1.39s-6.39.43-9.91,1.3c-3.52.87-6.33,2.66-8.43,5.37,2.34.49,4.38,1.73,6.11,3.7,1.73,1.98,2.59,4.51,2.59,7.59s-.99,5.53-2.96,7.31c-1.98,1.79-4.51,2.69-7.59,2.69-3.58,0-6.2-1.14-7.87-3.43-1.67-2.28-2.5-4.84-2.5-7.69,0-3.21.8-5.8,2.41-7.78,1.6-1.97,3.64-3.82,6.11-5.56,2.84-1.97,6.51-3.67,11.02-5.09,4.5-1.42,9.6-2.13,15.28-2.13,5.06,0,9.38.59,12.96,1.76,3.58,1.17,6.54,2.87,8.89,5.09,3.21,2.96,5.31,6.57,6.3,10.83.99,4.26,1.48,9.35,1.48,15.28v51.48c0,3.09.46,5.31,1.39,6.67.93,1.36,2.38,2.04,4.35,2.04,1.36,0,2.65-.31,3.89-.93,1.23-.62,2.71-1.6,4.44-2.96l2.04,3.15c-2.59,1.98-5.06,3.61-7.41,4.91-2.35,1.3-5.49,1.94-9.44,1.94-3.58,0-6.54-.62-8.89-1.85-2.35-1.23-4.11-3.06-5.28-5.46-1.17-2.41-1.76-5.46-1.76-9.17-3.33,5.55-7.31,9.69-11.94,12.41-4.63,2.72-9.85,4.07-15.65,4.07Zm6.67-7.41c4.07,0,7.87-1.17,11.39-3.52,3.52-2.34,6.7-5.86,9.54-10.55v-36.3c-1.48,2.1-3.64,3.86-6.48,5.28-2.84,1.42-5.93,2.84-9.26,4.26-3.33,1.42-6.51,3.09-9.54,5-3.03,1.92-5.53,4.42-7.5,7.5-1.98,3.09-2.96,7.1-2.96,12.04s1.33,8.89,3.98,11.85c2.65,2.96,6.26,4.44,10.83,4.44Z"/>
        <path class="cls-1" d="m508.13,11.48c8.02,0,14.5,1.2,19.44,3.61,4.94,2.41,9.57,5.22,13.89,8.43,1.6,1.24,2.84,1.85,3.7,1.85,2.34,0,3.89-3.76,4.63-11.3h4.26c-.25,4.57-.43,10.12-.55,16.67-.12,6.54-.19,15.18-.19,25.93h-4.26c-.86-5.19-1.92-10.19-3.15-15-1.24-4.81-3.27-8.95-6.11-12.41-3.58-4.57-8.27-8.12-14.07-10.65-5.8-2.53-11.79-3.8-17.96-3.8s-11.76,1.51-16.76,4.54c-5,3.03-9.29,7.38-12.87,13.06-3.58,5.68-6.33,12.5-8.24,20.46-1.92,7.96-2.87,16.94-2.87,26.94,0,22.22,3.58,38.49,10.74,48.8,7.16,10.31,18.27,15.46,33.33,15.46,4.44,0,8.3-.65,11.57-1.94,3.27-1.3,5.83-2.56,7.68-3.8,2.34-1.6,3.83-3.12,4.44-4.54.62-1.42.93-3.3.93-5.65v-17.78c0-5.06-.49-8.82-1.48-11.3-.99-2.47-2.81-4.13-5.46-5-2.66-.86-6.57-1.36-11.76-1.48v-3.7c2.22.12,4.82.22,7.78.28,2.96.06,6.08.12,9.35.19,3.27.06,6.26.09,8.98.09,4.07,0,7.75-.06,11.02-.19,3.27-.12,6.02-.25,8.24-.37v3.7c-2.72.12-4.75.56-6.11,1.3-1.36.74-2.25,2.22-2.69,4.44-.43,2.22-.65,5.62-.65,10.18v36.67h-3.7c-.12-2.1-.59-4.38-1.39-6.85-.8-2.47-2.01-3.7-3.61-3.7-.74,0-1.48.19-2.22.56-.74.37-2.04,1.24-3.89,2.59-4.07,3.09-8.4,5.53-12.96,7.31-4.57,1.79-9.88,2.69-15.93,2.69-12.72,0-23.61-2.62-32.68-7.87-9.07-5.25-16.02-12.81-20.83-22.68-4.81-9.88-7.22-21.67-7.22-35.37,0-14.44,2.59-26.91,7.78-37.41,5.19-10.49,12.25-18.61,21.2-24.35,8.95-5.74,19.17-8.61,30.65-8.61Z"/>
        <path class="cls-1" d="m602.57,0v127.96c0,5.18,1.08,8.7,3.24,10.55,2.16,1.85,5.77,2.78,10.83,2.78v3.89c-2.1-.12-5.28-.28-9.54-.46-4.26-.19-8.55-.28-12.87-.28s-8.46.09-12.78.28c-4.32.19-7.53.34-9.63.46v-3.89c5.06,0,8.67-.93,10.83-2.78,2.16-1.85,3.24-5.37,3.24-10.55V22.22c0-5.56-.99-9.66-2.96-12.31-1.98-2.65-5.68-3.98-11.11-3.98v-3.89c3.95.37,7.78.56,11.48.56s7-.21,10.28-.65c3.27-.43,6.26-1.08,8.98-1.94Z"/>
        <path class="cls-1" d="m669.61,47.22c7.9,0,15,1.73,21.3,5.19,6.3,3.46,11.33,8.89,15.09,16.3,3.76,7.41,5.65,17.04,5.65,28.89s-1.88,21.45-5.65,28.8c-3.77,7.35-8.8,12.75-15.09,16.2-6.3,3.46-13.4,5.19-21.3,5.19s-14.85-1.73-21.2-5.19c-6.36-3.45-11.42-8.86-15.18-16.2-3.77-7.34-5.65-16.94-5.65-28.8s1.88-21.48,5.65-28.89c3.76-7.41,8.83-12.84,15.18-16.3,6.36-3.45,13.43-5.19,21.2-5.19Zm0,3.7c-7.04,0-12.81,3.64-17.31,10.93-4.51,7.29-6.76,19.2-6.76,35.74s2.25,28.43,6.76,35.65c4.51,7.22,10.28,10.83,17.31,10.83s12.81-3.61,17.31-10.83c4.51-7.22,6.76-19.1,6.76-35.65s-2.25-28.45-6.76-35.74c-4.51-7.28-10.28-10.93-17.31-10.93Z"/>
        <path class="cls-1" d="m759.42,49.81v3.89c-3.09,0-5.8.22-8.15.65-2.35.43-3.89,1.7-4.63,3.8-.74,2.1-.18,5.8,1.67,11.11l19.26,55.18-1.3-.19,27.22-75.18,3.7,1.48-33.89,95.55h-3.15l-30.37-82.04c-1.98-4.94-3.92-7.9-5.83-8.89-1.92-.99-3.55-1.48-4.91-1.48v-3.89c2.47.37,5.03.65,7.68.83,2.65.19,5.52.28,8.61.28,3.83,0,7.87-.12,12.13-.37,4.26-.25,8.24-.49,11.94-.74Zm101.67,0v3.7c-2.35.25-4.54,1.27-6.57,3.06-2.04,1.79-3.86,5.09-5.46,9.91l-26.85,79.63h-3.15l-29.81-75.74,4.26-21.3h4.26l28.89,76.48-1.48,1.11,18.33-55.74c1.36-4.2,1.88-7.5,1.57-9.91-.31-2.41-1.54-4.2-3.7-5.37-2.16-1.17-5.46-1.88-9.91-2.13v-3.7c2.22.12,4.13.22,5.74.28,1.6.06,3.18.12,4.72.19,1.54.06,3.24.09,5.09.09,2.84,0,5.4-.06,7.69-.19,2.28-.12,4.41-.25,6.39-.37Z"/>
      </g>
      <path class="cls-1" d="m690.51,99.04c-14.32,4.51-17.16,8.17-20.66,26.61-3.51-18.44-6.35-22.1-20.66-26.61,14.32-4.51,17.16-8.18,20.66-26.61,3.51,18.44,6.35,22.1,20.66,26.61Z"/>
    </g>
  </g>
</svg>